<mxfile host="Electron" modified="2024-02-14T09:05:32.841Z" agent="Mozilla/5.0 (X11; Linux x86_64) AppleWebKit/537.36 (KHTML, like Gecko) draw.io/23.0.2 Chrome/120.0.6099.109 Electron/28.1.0 Safari/537.36" etag="qfCWp4v7YcN0aHFKKWfr" version="23.0.2" type="device">
  <diagram name="Page-1" id="xPQ6ydohOCyw-BKQFzPj">
    <mxGraphModel dx="2045" dy="699" grid="1" gridSize="10" guides="1" tooltips="1" connect="1" arrows="1" fold="1" page="1" pageScale="1" pageWidth="850" pageHeight="1100" math="0" shadow="0">
      <root>
        <mxCell id="0" />
        <mxCell id="1" parent="0" />
        <mxCell id="jblV96QmEv7qprYH-WsV-2" value="MANAGER" style="rounded=0;whiteSpace=wrap;html=1;fillColor=#dae8fc;strokeColor=#6c8ebf;" vertex="1" parent="1">
          <mxGeometry x="160" y="240" width="110" height="150" as="geometry" />
        </mxCell>
        <mxCell id="jblV96QmEv7qprYH-WsV-3" value="AGENT 1" style="rounded=1;whiteSpace=wrap;html=1;fillColor=#d5e8d4;strokeColor=#82b366;" vertex="1" parent="1">
          <mxGeometry x="360" y="210" width="130" height="60" as="geometry" />
        </mxCell>
        <mxCell id="jblV96QmEv7qprYH-WsV-4" value="AGENT 2" style="rounded=1;whiteSpace=wrap;html=1;fillColor=#d5e8d4;strokeColor=#82b366;" vertex="1" parent="1">
          <mxGeometry x="360" y="285" width="130" height="60" as="geometry" />
        </mxCell>
        <mxCell id="jblV96QmEv7qprYH-WsV-5" value="AGENT 3" style="rounded=1;whiteSpace=wrap;html=1;fillColor=#d5e8d4;strokeColor=#82b366;" vertex="1" parent="1">
          <mxGeometry x="360" y="370" width="130" height="60" as="geometry" />
        </mxCell>
        <mxCell id="jblV96QmEv7qprYH-WsV-6" value="" style="endArrow=classic;html=1;rounded=0;exitX=1;exitY=0.25;exitDx=0;exitDy=0;entryX=0;entryY=0.5;entryDx=0;entryDy=0;fillColor=#fff2cc;strokeColor=#d6b656;startArrow=block;startFill=1;strokeWidth=4;" edge="1" parent="1" source="jblV96QmEv7qprYH-WsV-2" target="jblV96QmEv7qprYH-WsV-3">
          <mxGeometry width="50" height="50" relative="1" as="geometry">
            <mxPoint x="400" y="460" as="sourcePoint" />
            <mxPoint x="450" y="410" as="targetPoint" />
            <Array as="points">
              <mxPoint x="320" y="278" />
              <mxPoint x="320" y="240" />
            </Array>
          </mxGeometry>
        </mxCell>
        <mxCell id="jblV96QmEv7qprYH-WsV-11" value="VSOCK" style="edgeLabel;html=1;align=center;verticalAlign=middle;resizable=0;points=[];" vertex="1" connectable="0" parent="jblV96QmEv7qprYH-WsV-6">
          <mxGeometry x="-0.5626" y="1" relative="1" as="geometry">
            <mxPoint x="22" y="-17" as="offset" />
          </mxGeometry>
        </mxCell>
        <mxCell id="jblV96QmEv7qprYH-WsV-8" value="" style="endArrow=classic;html=1;rounded=0;entryX=0;entryY=0.5;entryDx=0;entryDy=0;fillColor=#fff2cc;strokeColor=#d6b656;startArrow=blockThin;startFill=1;strokeWidth=4;" edge="1" parent="1" target="jblV96QmEv7qprYH-WsV-5">
          <mxGeometry width="50" height="50" relative="1" as="geometry">
            <mxPoint x="270" y="370" as="sourcePoint" />
            <mxPoint x="320" y="320" as="targetPoint" />
            <Array as="points">
              <mxPoint x="320" y="370" />
              <mxPoint x="320" y="400" />
            </Array>
          </mxGeometry>
        </mxCell>
        <mxCell id="jblV96QmEv7qprYH-WsV-13" value="VSOCK" style="edgeLabel;html=1;align=center;verticalAlign=middle;resizable=0;points=[];" vertex="1" connectable="0" parent="jblV96QmEv7qprYH-WsV-8">
          <mxGeometry x="-0.7333" y="4" relative="1" as="geometry">
            <mxPoint x="34" y="14" as="offset" />
          </mxGeometry>
        </mxCell>
        <mxCell id="jblV96QmEv7qprYH-WsV-9" value="" style="endArrow=classic;html=1;rounded=0;exitX=1;exitY=0.5;exitDx=0;exitDy=0;entryX=0;entryY=0.5;entryDx=0;entryDy=0;fillColor=#fff2cc;strokeColor=#d6b656;startArrow=blockThin;startFill=1;strokeWidth=4;" edge="1" parent="1" source="jblV96QmEv7qprYH-WsV-2" target="jblV96QmEv7qprYH-WsV-4">
          <mxGeometry width="50" height="50" relative="1" as="geometry">
            <mxPoint x="400" y="460" as="sourcePoint" />
            <mxPoint x="450" y="410" as="targetPoint" />
          </mxGeometry>
        </mxCell>
        <mxCell id="jblV96QmEv7qprYH-WsV-12" value="VSOCK" style="edgeLabel;html=1;align=center;verticalAlign=middle;resizable=0;points=[];" vertex="1" connectable="0" parent="jblV96QmEv7qprYH-WsV-9">
          <mxGeometry x="-0.4889" relative="1" as="geometry">
            <mxPoint x="17" as="offset" />
          </mxGeometry>
        </mxCell>
        <mxCell id="jblV96QmEv7qprYH-WsV-14" value="" style="endArrow=none;dashed=1;html=1;rounded=0;" edge="1" parent="1">
          <mxGeometry width="50" height="50" relative="1" as="geometry">
            <mxPoint x="120" y="480" as="sourcePoint" />
            <mxPoint x="120" y="160" as="targetPoint" />
          </mxGeometry>
        </mxCell>
        <mxCell id="jblV96QmEv7qprYH-WsV-15" value="&lt;b&gt;&lt;font style=&quot;font-size: 18px;&quot;&gt;COCOS&lt;/font&gt;&lt;/b&gt;" style="text;html=1;align=center;verticalAlign=middle;resizable=0;points=[];autosize=1;strokeColor=none;fillColor=none;" vertex="1" parent="1">
          <mxGeometry x="260" y="160" width="90" height="40" as="geometry" />
        </mxCell>
        <mxCell id="jblV96QmEv7qprYH-WsV-16" value="" style="endArrow=classic;startArrow=classic;html=1;rounded=0;entryX=0;entryY=0.5;entryDx=0;entryDy=0;strokeWidth=4;fillColor=#e1d5e7;strokeColor=#9673a6;" edge="1" parent="1" target="jblV96QmEv7qprYH-WsV-2">
          <mxGeometry width="50" height="50" relative="1" as="geometry">
            <mxPoint x="40" y="315" as="sourcePoint" />
            <mxPoint x="110" y="270" as="targetPoint" />
          </mxGeometry>
        </mxCell>
        <mxCell id="jblV96QmEv7qprYH-WsV-17" value="&lt;b&gt;&lt;font style=&quot;font-size: 12px;&quot;&gt;gRPC&lt;/font&gt;&lt;/b&gt;" style="edgeLabel;html=1;align=center;verticalAlign=middle;resizable=0;points=[];" vertex="1" connectable="0" parent="jblV96QmEv7qprYH-WsV-16">
          <mxGeometry x="-0.4182" y="-3" relative="1" as="geometry">
            <mxPoint x="26" y="-3" as="offset" />
          </mxGeometry>
        </mxCell>
        <mxCell id="jblV96QmEv7qprYH-WsV-21" value="&lt;div style=&quot;text-align: left;&quot;&gt;&lt;br&gt;&lt;/div&gt;" style="rounded=0;whiteSpace=wrap;html=1;" vertex="1" parent="1">
          <mxGeometry x="-80" y="260" width="120" height="130" as="geometry" />
        </mxCell>
        <mxCell id="jblV96QmEv7qprYH-WsV-22" value="&lt;b&gt;&lt;font style=&quot;font-size: 18px;&quot;&gt;PRISM&lt;/font&gt;&lt;/b&gt;" style="text;html=1;align=center;verticalAlign=middle;resizable=0;points=[];autosize=1;strokeColor=none;fillColor=none;" vertex="1" parent="1">
          <mxGeometry x="-60" y="260" width="80" height="40" as="geometry" />
        </mxCell>
        <mxCell id="jblV96QmEv7qprYH-WsV-23" value="USER" style="shape=umlActor;verticalLabelPosition=bottom;verticalAlign=top;html=1;outlineConnect=0;" vertex="1" parent="1">
          <mxGeometry x="105" y="488" width="30" height="60" as="geometry" />
        </mxCell>
        <mxCell id="jblV96QmEv7qprYH-WsV-26" value="Cert" style="swimlane;whiteSpace=wrap;html=1;" vertex="1" parent="1">
          <mxGeometry x="-30" y="334" width="65" height="36" as="geometry" />
        </mxCell>
        <mxCell id="jblV96QmEv7qprYH-WsV-27" value="Cert" style="swimlane;whiteSpace=wrap;html=1;" vertex="1" parent="1">
          <mxGeometry x="195" y="345" width="65" height="36" as="geometry" />
        </mxCell>
        <mxCell id="jblV96QmEv7qprYH-WsV-28" value="" style="curved=1;endArrow=classic;html=1;rounded=0;entryX=0.5;entryY=1;entryDx=0;entryDy=0;" edge="1" parent="1" target="jblV96QmEv7qprYH-WsV-27">
          <mxGeometry width="50" height="50" relative="1" as="geometry">
            <mxPoint x="140" y="500" as="sourcePoint" />
            <mxPoint x="320" y="490" as="targetPoint" />
            <Array as="points">
              <mxPoint x="190" y="490" />
              <mxPoint x="230" y="440" />
            </Array>
          </mxGeometry>
        </mxCell>
        <mxCell id="jblV96QmEv7qprYH-WsV-30" value="" style="curved=1;endArrow=classic;html=1;rounded=0;entryX=0.5;entryY=1;entryDx=0;entryDy=0;" edge="1" parent="1" target="jblV96QmEv7qprYH-WsV-26">
          <mxGeometry width="50" height="50" relative="1" as="geometry">
            <mxPoint x="100" y="500" as="sourcePoint" />
            <mxPoint x="-20" y="410" as="targetPoint" />
            <Array as="points">
              <mxPoint x="10" y="490" />
            </Array>
          </mxGeometry>
        </mxCell>
        <mxCell id="jblV96QmEv7qprYH-WsV-32" value="" style="edgeStyle=orthogonalEdgeStyle;rounded=0;orthogonalLoop=1;jettySize=auto;html=1;" edge="1" parent="1" source="jblV96QmEv7qprYH-WsV-31" target="jblV96QmEv7qprYH-WsV-5">
          <mxGeometry relative="1" as="geometry" />
        </mxCell>
        <mxCell id="jblV96QmEv7qprYH-WsV-39" value="gRPC" style="edgeLabel;html=1;align=center;verticalAlign=middle;resizable=0;points=[];" vertex="1" connectable="0" parent="jblV96QmEv7qprYH-WsV-32">
          <mxGeometry x="0.0172" y="4" relative="1" as="geometry">
            <mxPoint as="offset" />
          </mxGeometry>
        </mxCell>
        <mxCell id="jblV96QmEv7qprYH-WsV-31" value="CLI" style="rounded=0;whiteSpace=wrap;html=1;fillColor=#f5f5f5;fontColor=#333333;strokeColor=#666666;" vertex="1" parent="1">
          <mxGeometry x="380" y="488" width="90" height="50" as="geometry" />
        </mxCell>
        <mxCell id="jblV96QmEv7qprYH-WsV-33" value="" style="endArrow=classic;html=1;rounded=0;entryX=1;entryY=0.5;entryDx=0;entryDy=0;" edge="1" parent="1" target="jblV96QmEv7qprYH-WsV-4">
          <mxGeometry width="50" height="50" relative="1" as="geometry">
            <mxPoint x="470" y="510" as="sourcePoint" />
            <mxPoint x="520" y="460" as="targetPoint" />
            <Array as="points">
              <mxPoint x="520" y="510" />
              <mxPoint x="520" y="315" />
            </Array>
          </mxGeometry>
        </mxCell>
        <mxCell id="jblV96QmEv7qprYH-WsV-38" value="gRPC" style="edgeLabel;html=1;align=center;verticalAlign=middle;resizable=0;points=[];" vertex="1" connectable="0" parent="jblV96QmEv7qprYH-WsV-33">
          <mxGeometry x="-0.1042" y="2" relative="1" as="geometry">
            <mxPoint as="offset" />
          </mxGeometry>
        </mxCell>
        <mxCell id="jblV96QmEv7qprYH-WsV-34" value="" style="endArrow=classic;html=1;rounded=0;entryX=1;entryY=0.5;entryDx=0;entryDy=0;exitX=1;exitY=0.75;exitDx=0;exitDy=0;" edge="1" parent="1" source="jblV96QmEv7qprYH-WsV-31" target="jblV96QmEv7qprYH-WsV-3">
          <mxGeometry width="50" height="50" relative="1" as="geometry">
            <mxPoint x="480" y="520" as="sourcePoint" />
            <mxPoint x="500" y="325" as="targetPoint" />
            <Array as="points">
              <mxPoint x="550" y="526" />
              <mxPoint x="550" y="240" />
            </Array>
          </mxGeometry>
        </mxCell>
        <mxCell id="jblV96QmEv7qprYH-WsV-37" value="gRPC" style="edgeLabel;html=1;align=center;verticalAlign=middle;resizable=0;points=[];" vertex="1" connectable="0" parent="jblV96QmEv7qprYH-WsV-34">
          <mxGeometry x="0.025" y="3" relative="1" as="geometry">
            <mxPoint as="offset" />
          </mxGeometry>
        </mxCell>
      </root>
    </mxGraphModel>
  </diagram>
</mxfile>
